<svg width="129" height="40" viewBox="0 0 129 40" fill="none" xmlns="http://www.w3.org/2000/svg">
    <path d="M55.0508 12.3909H47.3108V25.0269H55.0508V22.5609H50.3888V19.7889H54.5108V17.4129H50.3888V14.8569H55.0508V12.3909ZM56.8691 19.9869H64.7891V17.4309H56.8691V19.9869ZM66.9685 18.6909C66.9685 22.4709 69.5965 25.1169 73.3225 25.1169C76.3285 25.1169 78.5965 23.4429 79.3165 20.7069H75.9325C75.4105 21.7869 74.4565 22.3269 73.2865 22.3269C71.3965 22.3269 70.1005 20.9229 70.1005 18.6909C70.1005 16.4589 71.3965 15.0549 73.2865 15.0549C74.4565 15.0549 75.4105 15.5949 75.9325 16.6749H79.3165C78.5965 13.9389 76.3285 12.2469 73.3225 12.2469C69.5965 12.2469 66.9685 14.9109 66.9685 18.6909ZM91.0294 20.0049C91.0294 16.8189 88.7614 14.8389 85.8094 14.8389C82.8754 14.8389 80.5894 16.8189 80.5894 20.0049C80.5894 23.1909 82.8214 25.1709 85.7734 25.1709C88.7254 25.1709 91.0294 23.1909 91.0294 20.0049ZM83.7214 20.0049C83.7214 18.2949 84.6934 17.5029 85.8094 17.5029C86.8894 17.5029 87.8974 18.2949 87.8974 20.0049C87.8974 21.6969 86.8714 22.5069 85.7734 22.5069C84.6574 22.5069 83.7214 21.6969 83.7214 20.0049ZM106.504 25.0269H109.564V19.1589C109.564 16.4589 107.962 14.8749 105.478 14.8749C104.02 14.8749 102.76 15.6849 102.094 16.7469C101.41 15.5409 100.186 14.8749 98.6744 14.8749C97.3604 14.8749 96.3344 15.4329 95.7404 16.2429V14.9829H92.6624V25.0269H95.7404V19.5729C95.7404 18.2589 96.4964 17.5389 97.6664 17.5389C98.8364 17.5389 99.5924 18.2589 99.5924 19.5729V25.0269H102.652V19.5729C102.652 18.2589 103.408 17.5389 104.578 17.5389C105.748 17.5389 106.504 18.2589 106.504 19.5729V25.0269ZM125.559 25.0269H128.619V19.1589C128.619 16.4589 127.017 14.8749 124.533 14.8749C123.075 14.8749 121.815 15.6849 121.149 16.7469C120.465 15.5409 119.241 14.8749 117.729 14.8749C116.415 14.8749 115.389 15.4329 114.795 16.2429V14.9829H111.717V25.0269H114.795V19.5729C114.795 18.2589 115.551 17.5389 116.721 17.5389C117.891 17.5389 118.647 18.2589 118.647 19.5729V25.0269H121.707V19.5729C121.707 18.2589 122.463 17.5389 123.633 17.5389C124.803 17.5389 125.559 18.2589 125.559 19.5729V25.0269Z"
          fill="#22262A"/>
    <rect x="0.0859375" y="0.0283203" width="39" height="39" rx="16" fill="#40BFFF"/>
    <path fill-rule="evenodd" clip-rule="evenodd"
          d="M27.6178 17.9962C28.464 18.8423 28.464 20.2142 27.6178 21.0603L21.1178 27.5603C20.2717 28.4064 18.8998 28.4064 18.0537 27.5603L11.5537 21.0603C10.7076 20.2142 10.7076 18.8423 11.5537 17.9962L18.0537 11.4962C18.8998 10.65 20.2717 10.65 21.1178 11.4962L27.6178 17.9962ZM19.5858 16.0924L16.1499 19.5282L19.5858 22.9641L23.0216 19.5282L19.5858 16.0924Z"
          fill="white"/>
</svg>
