<svg width="10" height="17" viewBox="0 0 10 17" fill="none" xmlns="http://www.w3.org/2000/svg">
    <path d="M1.23586 8.84164H2.99788V16.1021C2.99788 16.1709 3.02521 16.2369 3.07384 16.2855C3.12247 16.3342 3.18842 16.3615 3.25719 16.3615H6.24562C6.31439 16.3615 6.38034 16.3342 6.42897 16.2855C6.4776 16.2369 6.50493 16.1709 6.50493 16.1021V8.87566H8.53157C8.59512 8.87556 8.65643 8.85211 8.70384 8.80977C8.75125 8.76743 8.78147 8.70915 8.78876 8.64598L9.09695 5.97277C9.10114 5.93646 9.09762 5.89968 9.08662 5.86482C9.07561 5.82997 9.05737 5.79784 9.03309 5.77054C9.00881 5.74323 8.97903 5.72136 8.94572 5.70637C8.9124 5.69138 8.87629 5.6836 8.83976 5.68354H6.50173V4.0088C6.50173 3.50371 6.77381 3.24745 7.30943 3.24745H8.83551C8.90428 3.24745 8.97024 3.22012 9.01887 3.17146C9.0675 3.1228 9.09482 3.05681 9.09482 2.988V0.534895C9.09539 0.466447 9.06891 0.400547 9.02114 0.351551C8.97336 0.302556 8.90816 0.274435 8.83976 0.273315L6.73448 0.273315H6.63777C5.66832 0.276738 4.73259 0.62972 4.00218 1.26753C3.65751 1.5689 3.39306 1.95122 3.23261 2.38014C3.07215 2.80906 3.02071 3.27115 3.0829 3.72489V5.68461H1.23266C1.16389 5.68461 1.09794 5.71194 1.04931 5.7606C1.00068 5.80925 0.973358 5.87525 0.973358 5.94406V8.58218C0.973356 8.61652 0.980163 8.65053 0.993393 8.68221C1.00662 8.7139 1.02602 8.74265 1.05043 8.76678C1.07485 8.79092 1.10381 8.80996 1.13564 8.82281C1.16747 8.83566 1.20154 8.84206 1.23586 8.84164Z"
          fill="white"/>
</svg>
