<svg width="19" height="17" viewBox="0 0 19 17" fill="none" xmlns="http://www.w3.org/2000/svg">
    <path fill-rule="evenodd" clip-rule="evenodd"
          d="M12.8224 2.96095C13.4662 2.96161 14.0962 3.14809 14.6366 3.49806C15.177 3.84802 15.6049 4.34656 15.8689 4.93379C16.1329 5.52101 16.2218 6.17198 16.1248 6.80848C16.0279 7.44498 15.7492 8.03992 15.3224 8.52192C14.7094 9.21292 9.48241 14.106 9.48241 14.106C9.48241 14.106 4.2444 9.21293 3.6314 8.51093C3.09021 7.90347 2.79249 7.11753 2.7954 6.30396C2.81056 5.42723 3.16947 4.59147 3.79485 3.97681C4.42023 3.36216 5.26204 3.01777 6.13891 3.01777C7.01577 3.01777 7.85752 3.36216 8.4829 3.97681C9.10828 4.59147 9.46725 5.42723 9.48241 6.30396C9.48241 5.86482 9.56888 5.42995 9.73693 5.02424C9.90498 4.61853 10.1513 4.24992 10.4618 3.9394C10.7724 3.62888 11.141 3.38254 11.5467 3.21449C11.9524 3.04643 12.3873 2.95997 12.8264 2.95997L12.8224 2.96095ZM12.8264 0.730965C11.6201 0.72886 10.4461 1.12032 9.48241 1.84596C8.37845 1.02657 7.01055 0.644147 5.64171 0.772225C4.27288 0.900303 2.99968 1.52985 2.06688 2.5398C1.13409 3.54976 0.607538 4.86886 0.588429 6.24354C0.569321 7.61822 1.05901 8.95145 1.96337 9.98695C2.58937 10.7049 6.71237 14.565 7.96337 15.731C8.37629 16.1171 8.92054 16.3319 9.48589 16.3319C10.0512 16.3319 10.5954 16.1171 11.0084 15.731C12.2524 14.566 16.3584 10.716 16.9924 9.99897C17.7037 9.19543 18.1679 8.20361 18.3292 7.14265C18.4905 6.08169 18.3421 4.99671 17.9017 4.01807C17.4614 3.03944 16.7478 2.20873 15.8467 1.6258C14.9457 1.04287 13.8955 0.732491 12.8224 0.731942L12.8264 0.730965Z"
          fill="#33A0FF"/>
</svg>
