<svg width="40" height="26" viewBox="0 0 40 26" fill="none" xmlns="http://www.w3.org/2000/svg">
    <path d="M2.61509 0.593994H37.588C38.0387 0.603184 38.4674 0.790788 38.7796 1.11597C39.0919 1.44115 39.2621 1.87716 39.253 2.32788V24.0022C39.2621 24.4529 39.0919 24.8884 38.7796 25.2136C38.4674 25.5388 38.0387 25.7269 37.588 25.7361H2.61509C2.16437 25.7269 1.73568 25.5388 1.42344 25.2136C1.1112 24.8884 0.940945 24.4529 0.950055 24.0022V2.32788C0.940945 1.87716 1.1112 1.44115 1.42344 1.11597C1.73568 0.790788 2.16437 0.603184 2.61509 0.593994Z"
          fill="#5870BE"/>
    <path d="M17.7051 13.1608C17.7055 11.385 18.2324 9.64927 19.2192 8.17296C20.2061 6.69666 21.6085 5.54613 23.2491 4.86681C24.8898 4.18749 26.695 4.00995 28.4366 4.35656C30.1782 4.70316 31.778 5.55836 33.0336 6.81407C34.2891 8.06979 35.1442 9.66961 35.4906 11.4112C35.837 13.1529 35.6591 14.9581 34.9796 16.5987C34.3001 18.2393 33.1495 19.6414 31.6731 20.628C30.1967 21.6147 28.4608 22.1415 26.6851 22.1417C25.5057 22.1417 24.3379 21.9095 23.2483 21.4581C22.1587 21.0068 21.1687 20.3453 20.3348 19.5113C19.501 18.6774 18.8395 17.6874 18.3883 16.5978C17.9371 15.5081 17.7049 14.3401 17.7051 13.1608Z"
          fill="#FFAF38"/>
    <path d="M12.9262 22.1398C11.3952 22.1397 9.88956 21.748 8.55246 21.0021C7.21536 20.2563 6.09118 19.1808 5.28671 17.8781C4.48225 16.5754 4.02422 15.0888 3.95615 13.5593C3.88807 12.0297 4.21224 10.5079 4.8978 9.13887C5.58336 7.76985 6.60758 6.59923 7.87314 5.7375C9.13869 4.87577 10.6035 4.35171 12.1285 4.21553C13.6535 4.07934 15.1881 4.33532 16.5863 4.95918C17.9845 5.58304 19.2 6.55409 20.1173 7.77998H18.9173V8.38008H20.5302C20.6512 8.57108 20.7653 8.76895 20.8713 8.96895H18.3172V9.56904H21.1602C21.2482 9.76904 21.3273 9.96914 21.3973 10.1691H17.7173V10.7688H21.5853C22.0715 12.5427 22.0045 14.423 21.3933 16.1579H17.7173V16.758H21.1562C21.0662 16.965 20.9693 17.1578 20.8713 17.3488H18.3172V17.9489H20.5233C20.3903 18.1589 20.2513 18.36 20.1103 18.549H18.9173V19.1491H19.6173C18.7745 20.0895 17.7431 20.8418 16.5903 21.3571C15.4375 21.8725 14.189 22.139 12.9262 22.1398Z"
          fill="#E63737"/>
    <path d="M7.70019 12.2285L7.17168 16.3468L6.63012 16.2773L7.02421 13.2064L5.26135 16.1016L4.88047 16.0527L3.9006 12.7995L3.50575 15.8763L2.96419 15.8068L3.49269 11.6886L4.07591 11.7634L5.16256 15.363L7.12292 12.1545L7.70019 12.2285ZM8.09857 14.7961C8.14134 14.4629 8.24621 14.1799 8.41318 13.9473C8.58066 13.7107 8.79035 13.538 9.04225 13.4291C9.29812 13.3208 9.57086 13.2852 9.86049 13.3224C10.1461 13.3591 10.3862 13.4524 10.5807 13.6024C10.7752 13.7523 10.9121 13.9272 10.9913 14.1269L11.0677 13.5318L11.6152 13.602L11.1966 16.8633L10.6491 16.793L10.727 16.186C10.5955 16.3627 10.4144 16.5008 10.1839 16.6002C9.95783 16.6963 9.70395 16.7262 9.42226 16.69C9.13264 16.6529 8.87995 16.5478 8.6642 16.375C8.44845 16.2021 8.28967 15.9781 8.18788 15.7029C8.08608 15.4277 8.05631 15.1254 8.09857 14.7961ZM10.8592 15.1565C10.8907 14.9105 10.8686 14.6899 10.7929 14.4946C10.7171 14.2994 10.6 14.1432 10.4416 14.0261C10.2877 13.9055 10.1096 13.8323 9.90728 13.8063C9.70493 13.7803 9.51434 13.8043 9.33548 13.8781C9.15663 13.9519 9.0059 14.0737 8.88329 14.2435C8.76069 14.4133 8.6836 14.6212 8.65203 14.8672C8.61995 15.1171 8.64154 15.3417 8.7168 15.5409C8.79256 15.7361 8.9074 15.894 9.0613 16.0146C9.21572 16.1312 9.39409 16.2025 9.59643 16.2284C9.79877 16.2544 9.98937 16.2305 10.1682 16.1566C10.3516 16.0794 10.5045 15.9558 10.6271 15.786C10.7502 15.6123 10.8276 15.4024 10.8592 15.1565ZM13.2595 17.1825C13.0095 17.1504 12.7907 17.08 12.603 16.9712C12.4159 16.8585 12.2744 16.7193 12.1787 16.5538C12.0835 16.3843 12.0427 16.1996 12.0562 15.9997L12.6157 16.0715C12.6107 16.2362 12.669 16.3788 12.7906 16.4992C12.9163 16.6202 13.0902 16.695 13.3123 16.7235C13.5186 16.7499 13.6872 16.7252 13.8179 16.6492C13.9486 16.5732 14.0229 16.4658 14.0407 16.327C14.0591 16.1841 14.0091 16.0708 13.8908 15.9871C13.773 15.8994 13.5855 15.8048 13.3283 15.7032C13.0945 15.6087 12.9042 15.5197 12.7577 15.4364C12.6155 15.3496 12.4971 15.2356 12.4023 15.0944C12.312 14.9497 12.2803 14.7722 12.3073 14.562C12.3287 14.3953 12.3979 14.2489 12.5149 14.1228C12.6319 13.9967 12.7867 13.9056 12.9794 13.8497C13.1726 13.7898 13.3863 13.7749 13.6203 13.8049C13.9814 13.8513 14.2613 13.9799 14.46 14.191C14.6588 14.402 14.7457 14.6672 14.7209 14.9866L14.1793 14.9171C14.1893 14.745 14.1374 14.5992 14.0237 14.4798C13.914 14.3608 13.754 14.2879 13.5437 14.2609C13.3493 14.2359 13.1892 14.2577 13.0634 14.3263C12.9377 14.3948 12.8662 14.4966 12.8489 14.6315C12.8351 14.7386 12.8574 14.8322 12.9157 14.9122C12.9784 14.9889 13.0586 15.0556 13.1561 15.1125C13.2582 15.1659 13.3991 15.2304 13.579 15.3059C13.8049 15.3994 13.9872 15.4873 14.1258 15.5696C14.265 15.648 14.3782 15.7553 14.4656 15.8915C14.557 16.0282 14.5919 16.196 14.5704 16.3949C14.5475 16.5735 14.4773 16.7278 14.3597 16.8579C14.2422 16.988 14.0869 17.083 13.8937 17.1429C13.705 17.1993 13.4936 17.2125 13.2595 17.1825ZM16.2429 14.6496L15.9962 16.5719C15.9759 16.7306 15.9951 16.848 16.0539 16.9241C16.1132 16.9962 16.2261 17.043 16.3928 17.0643L16.7915 17.1155L16.7327 17.5738L16.2447 17.5111C15.9432 17.4724 15.7259 17.374 15.593 17.2158C15.46 17.0576 15.4139 16.8198 15.4547 16.5024L15.7014 14.5801L15.2788 14.5259L15.3361 14.0796L15.7586 14.1338L15.864 13.3125L16.4056 13.382L16.3002 14.2033L17.1512 14.3125L17.0939 14.7588L16.2429 14.6496ZM20.5898 16.2842C20.5765 16.3874 20.5566 16.4957 20.5299 16.6093L17.9233 16.2747C17.9019 16.5987 17.9786 16.8646 18.1536 17.0725C18.333 17.2771 18.5656 17.3976 18.8512 17.4343C19.0853 17.4643 19.2866 17.4357 19.4551 17.3485C19.628 17.2577 19.7579 17.1252 19.8448 16.9508L20.4281 17.0257C20.3006 17.3279 20.0931 17.5614 19.8058 17.7262C19.519 17.887 19.1812 17.9424 18.7924 17.8925C18.483 17.8528 18.2141 17.7477 17.986 17.5773C17.7618 17.4074 17.5966 17.1866 17.4903 16.9148C17.3845 16.6391 17.3533 16.3327 17.3965 15.9954C17.4398 15.6582 17.5452 15.3713 17.7127 15.1347C17.8802 14.8981 18.0936 14.7278 18.3529 14.624C18.6167 14.5167 18.9073 14.4834 19.2247 14.5242C19.5342 14.5639 19.7993 14.6665 20.02 14.8319C20.2407 14.9973 20.3993 15.2072 20.4957 15.4616C20.5966 15.7125 20.6279 15.9867 20.5898 16.2842ZM20.0449 16.0994C20.0713 15.8931 20.0484 15.7107 19.976 15.5521C19.904 15.3897 19.7936 15.2606 19.6446 15.1648C19.5 15.0656 19.3325 15.0038 19.1421 14.9793C18.8683 14.9442 18.623 15.0015 18.4062 15.1511C18.1934 15.3012 18.0532 15.5292 17.9857 15.8351L20.0449 16.0994ZM21.9714 15.4695C22.0906 15.2952 22.244 15.1677 22.4318 15.087C22.6236 15.0067 22.8465 14.9829 23.1004 15.0155L23.0286 15.5749L22.8858 15.5566C22.2787 15.4787 21.933 15.769 21.8484 16.4276L21.6209 18.2011L21.0793 18.1316L21.4978 14.8703L22.0394 14.9398L21.9714 15.4695ZM23.3636 16.3136C23.4155 15.9089 23.5533 15.5576 23.7771 15.2596C24.0013 14.9577 24.2819 14.7356 24.6187 14.5933C24.9596 14.4516 25.3224 14.4054 25.7072 14.4548C26.1595 14.5128 26.5403 14.6726 26.8495 14.9341C27.1588 15.1955 27.365 15.5366 27.4683 15.9571L26.8196 15.8739C26.7367 15.6092 26.5947 15.3954 26.3938 15.2325C26.1969 15.0701 25.9477 14.9695 25.6461 14.9309C25.3565 14.8937 25.088 14.9278 24.8406 15.0331C24.5931 15.1385 24.3879 15.3078 24.2249 15.5409C24.0624 15.7701 23.9598 16.0513 23.917 16.3846C23.8748 16.7139 23.9031 17.0119 24.0019 17.2787C24.1013 17.5414 24.2574 17.755 24.4702 17.9195C24.683 18.0839 24.9342 18.1847 25.2238 18.2219C25.5253 18.2606 25.7916 18.2282 26.0227 18.1248C26.2582 18.0179 26.4495 17.8468 26.5966 17.6116L27.2453 17.6949C27.0397 18.0718 26.7542 18.3477 26.389 18.5226C26.0243 18.6936 25.6158 18.75 25.1635 18.692C24.7786 18.6426 24.439 18.5083 24.1445 18.289C23.8545 18.0663 23.6388 17.7825 23.4976 17.4378C23.3563 17.093 23.3116 16.7182 23.3636 16.3136ZM27.9049 17.3379C27.9477 17.0047 28.0525 16.7217 28.2195 16.4891C28.387 16.2525 28.5967 16.0798 28.8486 15.9709C29.1044 15.8626 29.3772 15.8271 29.6668 15.8642C29.9525 15.9009 30.1925 15.9942 30.387 16.1442C30.5815 16.2942 30.7184 16.469 30.7976 16.6687L30.874 16.0736L31.4215 16.1439L31.003 19.4051L30.4554 19.3349L30.5333 18.7278C30.4018 18.9045 30.2207 19.0426 29.9902 19.1421C29.7641 19.2381 29.5103 19.268 29.2286 19.2318C28.939 19.1947 28.6863 19.0897 28.4705 18.9168C28.2548 18.7439 28.096 18.5199 27.9942 18.2447C27.8924 17.9695 27.8626 17.6672 27.9049 17.3379ZM30.6655 17.6983C30.697 17.4523 30.6749 17.2317 30.5992 17.0364C30.5234 16.8412 30.4063 16.685 30.248 16.5679C30.0941 16.4474 29.9159 16.3741 29.7136 16.3481C29.5113 16.3222 29.3207 16.3461 29.1418 16.4199C28.9629 16.4938 28.8122 16.6156 28.6896 16.7853C28.567 16.9551 28.4899 17.163 28.4583 17.409C28.4263 17.6589 28.4479 17.8835 28.5231 18.0827C28.5989 18.2779 28.7137 18.4358 28.8676 18.5564C29.022 18.673 29.2004 18.7443 29.4027 18.7703C29.6051 18.7962 29.7957 18.7723 29.9745 18.6985C30.1579 18.6212 30.3108 18.4976 30.4334 18.3279C30.5566 18.1541 30.6339 17.9443 30.6655 17.6983ZM32.8103 16.8605C32.9294 16.6862 33.0829 16.5587 33.2707 16.478C33.4625 16.3977 33.6853 16.3739 33.9392 16.4065L33.8674 16.9659L33.7246 16.9476C33.1176 16.8697 32.7718 17.16 32.6873 17.8186L32.4597 19.5921L31.9181 19.5226L32.3367 16.2613L32.8782 16.3308L32.8103 16.8605ZM34.1467 18.139C34.1894 17.8057 34.2943 17.5228 34.4613 17.2901C34.6288 17.0535 34.8384 16.8808 35.0903 16.772C35.3462 16.6637 35.6209 16.6283 35.9145 16.666C36.1685 16.6986 36.3969 16.7884 36.5998 16.9354C36.8033 17.0785 36.9503 17.2526 37.0409 17.4578L37.2624 15.732L37.8099 15.8023L37.2447 20.2061L36.6972 20.1359L36.7759 19.5229C36.6438 19.7036 36.4645 19.8439 36.2379 19.9439C36.0119 20.0399 35.758 20.0698 35.4763 20.0336C35.1867 19.9965 34.932 19.8912 34.7123 19.7178C34.4965 19.5449 34.3378 19.3209 34.236 19.0457C34.1342 18.7705 34.1044 18.4683 34.1467 18.139ZM36.9073 18.4993C36.9388 18.2533 36.9167 18.0327 36.841 17.8375C36.7652 17.6422 36.6481 17.4861 36.4897 17.369C36.3358 17.2484 36.1577 17.1751 35.9554 17.1492C35.753 17.1232 35.5624 17.1471 35.3836 17.221C35.2047 17.2948 35.054 17.4166 34.9314 17.5864C34.8088 17.7561 34.7317 17.964 34.7001 18.21C34.668 18.46 34.6896 18.6845 34.7649 18.8837C34.8407 19.079 34.9555 19.2369 35.1094 19.3574C35.2638 19.474 35.4422 19.5453 35.6445 19.5713C35.8469 19.5973 36.0375 19.5733 36.2163 19.4995C36.3996 19.4222 36.5526 19.2987 36.6752 19.1289C36.7983 18.9551 36.8757 18.7453 36.9073 18.4993Z"
          fill="white"/>
</svg>
