<svg width="21" height="21" viewBox="0 0 21 21" fill="none" xmlns="http://www.w3.org/2000/svg">
    <path d="M7.22949 19.7393C7.54015 19.7393 7.79199 19.4874 7.79199 19.1768C7.79199 18.8661 7.54015 18.6143 7.22949 18.6143C6.91883 18.6143 6.66699 18.8661 6.66699 19.1768C6.66699 19.4874 6.91883 19.7393 7.22949 19.7393Z"
          fill="#22262A" stroke="#22262A" stroke-width="2" stroke-miterlimit="10" stroke-linecap="round"
          stroke-linejoin="round"/>
    <path d="M15.1045 19.7393C15.4152 19.7393 15.667 19.4874 15.667 19.1768C15.667 18.8661 15.4152 18.6143 15.1045 18.6143C14.7938 18.6143 14.542 18.8661 14.542 19.1768C14.542 19.4874 14.7938 19.7393 15.1045 19.7393Z"
          fill="#22262A" stroke="#22262A" stroke-width="2" stroke-miterlimit="10" stroke-linecap="round"
          stroke-linejoin="round"/>
    <path d="M1.04199 1.73926H3.29199L5.54199 15.2393H16.792L19.042 5.11426H4.41699" stroke="#22262A" stroke-width="2"
          stroke-linecap="round" stroke-linejoin="round"/>
</svg>
