<svg width="18" height="19" viewBox="0 0 18 19" fill="none" xmlns="http://www.w3.org/2000/svg">
    <path fill-rule="evenodd" clip-rule="evenodd"
          d="M14.44 12.8777C14.954 12.877 15.4519 12.6979 15.8487 12.3712C16.2456 12.0444 16.5167 11.5901 16.616 11.0857L17.731 5.5127C17.7956 5.18971 17.7878 4.85641 17.7081 4.5368C17.6285 4.2172 17.4791 3.91924 17.2705 3.66431C17.0619 3.40937 16.7995 3.20381 16.502 3.06244C16.2045 2.92107 15.8794 2.84738 15.55 2.84668H4.45V1.73169C4.44974 1.43684 4.33271 1.15408 4.1245 0.945312C3.91629 0.73654 3.63386 0.618733 3.33901 0.617676H1.12401C0.834208 0.626358 0.559181 0.747566 0.357259 0.955627C0.155337 1.16369 0.0424088 1.44224 0.0424088 1.73218C0.0424088 2.02211 0.155337 2.30067 0.357259 2.50873C0.559181 2.71679 0.834208 2.838 1.12401 2.84668H2.239V13.9917C1.79773 13.9897 1.36578 14.1188 0.997914 14.3625C0.630044 14.6062 0.342808 14.9536 0.172566 15.3607C0.00232412 15.7678 -0.0432585 16.2163 0.0416154 16.6494C0.126489 17.0824 0.337983 17.4805 0.649312 17.7933C0.960641 18.106 1.3578 18.3192 1.79046 18.4061C2.22311 18.4929 2.67179 18.4494 3.07967 18.2809C3.48755 18.1125 3.83628 17.8269 4.08165 17.4601C4.32703 17.0933 4.45799 16.662 4.458 16.2207H12.224C12.2258 16.6594 12.3575 17.0877 12.6025 17.4516C12.8475 17.8155 13.1949 18.0986 13.6007 18.2653C14.0065 18.4319 14.4525 18.4746 14.8826 18.3879C15.3126 18.3013 15.7074 18.0891 16.0169 17.7783C16.3265 17.4674 16.5371 17.0719 16.622 16.6415C16.7069 16.2111 16.6624 15.7652 16.4941 15.36C16.3258 14.9549 16.0413 14.6087 15.6764 14.3652C15.3116 14.1216 14.8827 13.9917 14.444 13.9917H4.45702V12.8777H14.44ZM15.555 5.0777L14.44 10.6507H4.45299V5.0777H15.553H15.555Z"
          fill="#33A0FF"/>
</svg>
