<svg width="19" height="14" viewBox="0 0 19 14" fill="none" xmlns="http://www.w3.org/2000/svg">
    <path d="M18.2643 2.48809C17.6144 2.74342 16.9271 2.91317 16.2235 2.99211C16.9653 2.59605 17.52 1.96877 17.7825 1.22911C17.0887 1.59954 16.3298 1.86062 15.5384 2.00109C15.0528 1.53318 14.422 1.20769 13.7281 1.06698C13.0342 0.926264 12.3093 0.976836 11.6477 1.21212C10.9862 1.44739 10.4186 1.85649 10.0188 2.38617C9.61908 2.91584 9.40565 3.54158 9.40631 4.18197C9.40372 4.42642 9.43145 4.67037 9.48898 4.90928C8.07952 4.84698 6.70053 4.51758 5.44216 3.9426C4.18378 3.36762 3.07436 2.56001 2.18642 1.57257C1.7304 2.27425 1.58917 3.10621 1.79155 3.8985C1.99394 4.69078 2.52469 5.38361 3.27537 5.83544C2.71469 5.82204 2.16582 5.68747 1.67502 5.44307V5.47816C1.67578 6.21427 1.95797 6.92771 2.47417 7.49856C2.99037 8.06942 3.70911 8.46289 4.50959 8.61285C4.20636 8.68526 3.89379 8.72101 3.58008 8.71918C3.35495 8.72286 3.13004 8.70468 2.90924 8.66495C3.13789 9.29759 3.57861 9.85092 4.17079 10.2489C4.76297 10.6468 5.47753 10.8699 6.21624 10.8873C4.96359 11.7685 3.41941 12.2469 1.82974 12.2462C1.54632 12.248 1.26307 12.2335 0.981728 12.2026C2.60117 13.1421 4.48816 13.6392 6.41466 13.6339C7.74129 13.6422 9.05654 13.4131 10.284 12.96C11.5115 12.5068 12.6267 11.8386 13.5649 10.9941C14.5031 10.1497 15.2456 9.14577 15.7492 8.04077C16.2529 6.93578 16.5076 5.7517 16.4986 4.55732C16.4986 4.4159 16.4986 4.27979 16.4857 4.14475C17.1856 3.69458 17.7884 3.13316 18.2643 2.48809Z"
          fill="white"/>
</svg>
