<svg width="39" height="26" viewBox="0 0 39 26" fill="none" xmlns="http://www.w3.org/2000/svg">
    <path d="M1.85093 0.593994H36.8509C37.0743 0.598285 37.2946 0.646599 37.4992 0.736084C37.7039 0.825569 37.889 0.95444 38.0438 1.11548C38.1986 1.27652 38.3201 1.46651 38.4015 1.67456C38.4828 1.88261 38.5224 2.10454 38.5179 2.32788V24.0022C38.5224 24.2255 38.4828 24.4475 38.4015 24.6555C38.3201 24.8636 38.1986 25.0536 38.0438 25.2146C37.889 25.3756 37.7039 25.5045 37.4992 25.594C37.2946 25.6835 37.0743 25.7318 36.8509 25.7361H1.85093C1.62759 25.7318 1.4073 25.6835 1.20262 25.594C0.997937 25.5045 0.812878 25.3756 0.658062 25.2146C0.503245 25.0536 0.381628 24.8636 0.300274 24.6555C0.21892 24.4475 0.179432 24.2255 0.183941 24.0022V2.32788C0.179432 2.10454 0.21892 1.88261 0.300274 1.67456C0.381628 1.46651 0.503245 1.27652 0.658062 1.11548C0.812878 0.95444 0.997937 0.825569 1.20262 0.736084C1.4073 0.646599 1.62759 0.598285 1.85093 0.593994Z"
          fill="url(#paint0_linear_2015_21)"/>
    <path d="M30.156 17.8201L29.9041 16.5251H27.17L26.7211 17.8201H24.479L27.686 9.75513C27.7606 9.55514 27.8973 9.38411 28.0759 9.26733C28.2546 9.15056 28.466 9.09424 28.6791 9.1062H30.4081L32.13 17.821L30.156 17.8201ZM28.92 11.4758L27.79 14.7371H29.556L28.92 11.4758ZM21.6331 11.5901C21.6331 12.5421 24.6331 12.7458 24.6331 14.9348C24.6331 17.0428 22.418 17.8181 20.951 17.8181C20.1173 17.8319 19.2899 17.6696 18.5231 17.342L18.843 15.4519C19.723 16.1719 22.3921 16.3771 22.3921 15.2341C22.3921 14.0911 19.4171 14.0639 19.4171 11.8879C19.4171 9.57594 21.9511 9.09985 23.0171 9.09985C23.6774 9.11678 24.3305 9.24091 24.951 9.46704L24.644 11.2761C23.726 10.7641 21.6311 10.642 21.6311 11.594L21.6331 11.5901ZM15.0491 17.8201L16.3931 9.10474H18.5441L17.2001 17.8201H15.0491ZM9.89209 17.8201L8.026 10.2581C8.35565 10.464 8.67016 10.6932 8.96704 10.9441C9.86406 11.7117 10.5466 12.6986 10.948 13.8088L11.191 15.0999L13.2421 9.1062H15.557L12.135 17.821L9.89209 17.8201ZM6.09802 9.34399L5.99805 9.31421L6.09802 9.34399ZM5.87805 9.27905L5.83008 9.26587L5.87805 9.27905ZM6.4071 9.44897L6.27905 9.40405L6.4071 9.44897ZM7.89807 10.1741C7.8314 10.1327 7.76466 10.0929 7.698 10.0549C7.762 10.0989 7.828 10.137 7.896 10.179L7.89807 10.1741ZM7.38403 9.88403C7.32603 9.85403 7.26611 9.82219 7.20911 9.79419C7.26411 9.82719 7.32308 9.85892 7.38208 9.88892L7.38403 9.88403ZM6.849 9.6272L6.73108 9.57593L6.849 9.6272Z"
          fill="#494CA3"/>
    <path d="M10.9451 13.813L10.2211 9.89501C10.183 9.65886 10.0563 9.44617 9.8667 9.30028C9.67714 9.1544 9.43907 9.08666 9.20105 9.11034H5.81104L5.771 9.25732C6.94805 9.5747 8.03888 10.1522 8.96301 10.9473C9.86054 11.715 10.5435 12.7022 10.9451 13.813Z"
          fill="#FFC000"/>
    <defs>
        <linearGradient id="paint0_linear_2015_21" x1="19.3509" y1="25.7361" x2="19.3509" y2="0.593994"
                        gradientUnits="userSpaceOnUse">
            <stop stop-color="#E59703"/>
            <stop offset="0.231" stop-color="#E59703"/>
            <stop offset="0.234" stop-color="white"/>
            <stop offset="0.761" stop-color="white"/>
            <stop offset="0.766" stop-color="#5457BB"/>
            <stop offset="1" stop-color="#5457BB"/>
        </linearGradient>
    </defs>
</svg>
