<svg width="39" height="26" viewBox="0 0 39 26" fill="none" xmlns="http://www.w3.org/2000/svg">
    <path d="M1.74791 0.791748H36.73C36.9532 0.796169 37.1733 0.844784 37.3779 0.934326C37.5825 1.02387 37.7674 1.15269 37.9221 1.31372C38.0768 1.47475 38.1984 1.66482 38.2796 1.8728C38.3609 2.08078 38.4004 2.30286 38.3959 2.52612V24.2019C38.4047 24.6526 38.2342 25.0883 37.9217 25.4133C37.6093 25.7383 37.1807 25.9259 36.73 25.9348H1.74791C1.29718 25.9259 0.868437 25.7383 0.556011 25.4133C0.243585 25.0883 0.07305 24.6526 0.0818895 24.2019V2.52612C0.0773796 2.30286 0.116931 2.08078 0.198222 1.8728C0.279514 1.66482 0.400933 1.47475 0.555644 1.31372C0.710355 1.15269 0.895269 1.02387 1.09983 0.934326C1.3044 0.844784 1.52464 0.796169 1.74791 0.791748Z"
          fill="#353A40"/>
    <path d="M22.7711 17.3561C22.5067 17.2217 22.2893 17.01 22.1472 16.7496C21.9768 16.431 21.894 16.0732 21.9072 15.712C21.8926 15.4659 21.9268 15.2192 22.0082 14.9865C22.0895 14.7537 22.2164 14.5395 22.3812 14.3561C22.5565 14.1892 22.7641 14.06 22.9913 13.9767C23.2186 13.8934 23.4605 13.8575 23.7021 13.8717C23.9456 13.856 24.1897 13.8903 24.4194 13.9723C24.6492 14.0543 24.8597 14.1825 25.0382 14.3488C25.2015 14.5287 25.327 14.7396 25.4076 14.9689C25.4881 15.1982 25.5221 15.4412 25.5072 15.6837C25.5221 16.0354 25.4534 16.3856 25.3071 16.7057C25.1749 16.9663 24.9692 17.1823 24.7152 17.3268C24.4178 17.4841 24.0844 17.5608 23.7482 17.549C23.412 17.5611 23.0775 17.4951 22.7711 17.3561ZM23.1771 14.9391C23.0482 15.1774 22.9807 15.444 22.9807 15.715C22.9807 15.9859 23.0482 16.2525 23.1771 16.4909C23.2451 16.5647 23.3278 16.6234 23.4197 16.6637C23.5116 16.704 23.6108 16.7252 23.7112 16.7252C23.8115 16.7252 23.9108 16.704 24.0027 16.6637C24.0946 16.6234 24.1771 16.5647 24.2451 16.4909C24.3967 16.2436 24.4635 15.9534 24.4352 15.6647C24.4567 15.4041 24.386 15.1444 24.2352 14.9308C24.1691 14.8543 24.0865 14.794 23.9937 14.754C23.9008 14.714 23.8002 14.6953 23.6992 14.6998C23.5997 14.697 23.5009 14.717 23.4104 14.7584C23.3199 14.7999 23.24 14.8619 23.1771 14.9391ZM13.2651 17.5128C13.0908 17.4957 12.9213 17.4461 12.7651 17.3668C12.6236 17.2896 12.4986 17.1851 12.3972 17.0597C12.2934 16.9407 12.2154 16.8017 12.1682 16.651C12.1069 16.4567 12.0732 16.2546 12.0682 16.0509V13.9327H13.1392V16.1007C13.1344 16.1831 13.1459 16.266 13.1732 16.3439C13.2005 16.4218 13.243 16.4934 13.2982 16.5548C13.4196 16.6591 13.5742 16.7164 13.7341 16.7164C13.8941 16.7164 14.0488 16.6591 14.1702 16.5548C14.2253 16.4928 14.2677 16.4204 14.2948 16.3419C14.3219 16.2635 14.3332 16.1806 14.3281 16.0978V13.9298H15.3992V16.048C15.3997 16.2522 15.3659 16.4551 15.2992 16.6481C15.2375 16.8317 15.1349 16.9987 14.9991 17.1368C14.8794 17.2674 14.7323 17.3697 14.5682 17.4367C14.327 17.5206 14.0725 17.5608 13.8171 17.5548C13.6328 17.5511 13.4489 17.5368 13.2662 17.5118L13.2651 17.5128ZM28.4042 17.4889L27.1041 15.5368V17.4889H26.0941V13.9337H27.0941L28.4032 15.9V13.9337H29.4152V17.4889H28.4042ZM18.4261 17.4889L17.1262 15.5368V17.4889H16.1162V13.9337H17.1162L18.4242 15.9V13.9337H19.4362V17.4889H18.4261ZM20.1962 17.4796V13.9308H21.2761V17.4796H20.1962ZM11.9912 12.4987C11.7597 12.2588 11.6222 11.9439 11.6041 11.611L12.6262 11.546C12.6369 11.6847 12.683 11.818 12.7601 11.9337C12.8159 12.0054 12.8881 12.0624 12.9706 12.1002C13.0531 12.138 13.1435 12.1556 13.2341 12.151C13.3622 12.1595 13.4889 12.1196 13.5892 12.0397C13.6268 12.0099 13.6572 11.9723 13.6783 11.9293C13.6995 11.8863 13.7107 11.8391 13.7113 11.7911C13.7119 11.7432 13.7017 11.696 13.6816 11.6525C13.6616 11.609 13.632 11.5703 13.5952 11.5397C13.429 11.4319 13.2413 11.3616 13.0452 11.3336C12.6797 11.2724 12.3344 11.1246 12.0382 10.902C11.9406 10.817 11.8629 10.711 11.811 10.5924C11.7592 10.4738 11.7343 10.3454 11.7382 10.216C11.7386 10.0322 11.7925 9.85254 11.8932 9.69886C12.0071 9.52744 12.1698 9.39423 12.3602 9.31605C12.6327 9.2117 12.9237 9.16423 13.2152 9.17689C13.5721 9.15308 13.9275 9.24183 14.2312 9.43079C14.3537 9.52773 14.4541 9.6499 14.5259 9.7887C14.5976 9.92751 14.639 10.0799 14.6472 10.236L13.6351 10.297C13.6219 10.1641 13.5617 10.0402 13.4652 9.94788C13.3631 9.86995 13.2364 9.83138 13.1082 9.839C13.0075 9.83167 12.9076 9.86043 12.8262 9.92005C12.7962 9.94401 12.7721 9.97427 12.7556 10.0089C12.7392 10.0436 12.7308 10.0814 12.7312 10.1198C12.732 10.1497 12.7395 10.179 12.7532 10.2057C12.7668 10.2324 12.7863 10.2559 12.8102 10.2741C12.9194 10.3436 13.0427 10.3879 13.1711 10.4039C13.5187 10.4683 13.8575 10.5737 14.1802 10.7179C14.3622 10.8051 14.5157 10.9421 14.6232 11.1129C14.716 11.2721 14.7638 11.4535 14.7612 11.6378C14.7625 11.8617 14.6981 12.0809 14.5762 12.2687C14.4508 12.4624 14.2709 12.6148 14.0592 12.7067C13.7939 12.8137 13.5091 12.8649 13.2231 12.8561C12.7815 12.9022 12.3394 12.7734 11.9912 12.4977V12.4987ZM28.4052 12.7887L27.1052 10.8361V12.7887H26.0952V9.23402H27.0952L28.4042 11.2008V9.23402H29.4161V12.7887H28.4052ZM24.5302 12.7887L23.9562 11.7018C23.91 11.5987 23.8437 11.506 23.7612 11.4288C23.6843 11.3738 23.5918 11.3447 23.4972 11.3458H23.4022V12.7887H22.3231V9.23402H24.1122C24.3688 9.22395 24.6254 9.2532 24.8732 9.32093C25.0471 9.37776 25.1969 9.49131 25.2982 9.64369C25.4094 9.81477 25.4656 10.0159 25.4592 10.2199C25.4637 10.398 25.4212 10.5745 25.3362 10.7311C25.2538 10.8735 25.1369 10.9925 24.9962 11.0778C24.8787 11.1445 24.7515 11.1925 24.6191 11.2199C24.7184 11.2492 24.8127 11.2929 24.8992 11.3497C24.9634 11.4054 25.0209 11.4685 25.0702 11.5377C25.1273 11.6062 25.1778 11.6801 25.2212 11.7579L25.7412 12.7887H24.5302ZM23.4032 10.673H23.8562C23.9522 10.6661 24.0472 10.6496 24.1401 10.6246C24.2098 10.6103 24.2718 10.571 24.3142 10.5138C24.3593 10.4543 24.3832 10.3814 24.3822 10.3068C24.3853 10.2574 24.3773 10.2081 24.3588 10.1622C24.3402 10.1164 24.3116 10.075 24.2751 10.0416C24.1555 9.96809 24.0148 9.93629 23.8751 9.95081H23.4032V10.673ZM18.8032 12.7887V9.23402H21.6812V9.99281H19.8812V10.5577H21.5532V11.2838H19.8812V11.984H21.7362V12.7887H18.8032ZM16.1511 12.7887V10.1119H15.0562V9.23402H18.3212V10.1119H17.2212V12.7887H16.1511ZM8.28613 12.7887V9.23402H11.1642V9.99281H9.36414V10.5577H11.0352V11.2838H9.3562V11.984H11.2092V12.7887H8.28613ZM6.11914 12.7887L5.51013 10.5499L4.9032 12.7887H3.85022L3.07715 9.23402H4.09717L4.46423 11.2238L5.0022 9.23402H6.01819L6.55713 11.2218L6.92419 9.23402H7.93921L7.17322 12.7887H6.11914Z"
          fill="#ECD345"/>
    <path d="M34.2058 17.551V9.17114H35.4058V17.551H34.2058ZM31.2158 17.551V9.17114H32.4158V17.551H31.2158Z"
          fill="#ECD345"/>
</svg>
